<mxfile host="Electron" agent="Mozilla/5.0 (X11; Linux x86_64) AppleWebKit/537.36 (KHTML, like Gecko) draw.io/24.7.17 Chrome/128.0.6613.36 Electron/32.0.1 Safari/537.36" version="24.7.17">
  <diagram name="Page-1" id="kkGQVsVKUBM1ujhqkcZJ">
    <mxGraphModel dx="1434" dy="838" grid="1" gridSize="10" guides="1" tooltips="1" connect="1" arrows="1" fold="1" page="1" pageScale="1" pageWidth="827" pageHeight="1169" math="0" shadow="0">
      <root>
        <mxCell id="0" />
        <mxCell id="1" parent="0" />
        <object label="" placeholders="1" class_name="ForwardsEuler" id="VJJN_RWPSZKce4CWAGm1-210">
          <mxCell style="rounded=0;whiteSpace=wrap;html=1;fillColor=#fff2cc;strokeColor=#d6b656;container=0;connectable=0;allowArrows=0;treeFolding=0;moveCells=0;treeMoving=0;comic=0;rotatable=0;expand=1;autosize=1;resizeWidth=1;resizeHeight=1;metaEdit=1;" vertex="1" parent="1">
            <mxGeometry x="50" y="250" width="870" height="570" as="geometry">
              <mxRectangle x="40" y="400" width="50" height="40" as="alternateBounds" />
            </mxGeometry>
          </mxCell>
        </object>
        <object label="%class_name%" placeholders="1" id="VJJN_RWPSZKce4CWAGm1-211">
          <mxCell style="rounded=0;whiteSpace=wrap;html=1;fillColor=#ffffff;fontSize=18;connectable=0;allowArrows=0;rotatable=0;cloneable=0;deletable=0;" vertex="1" parent="VJJN_RWPSZKce4CWAGm1-210">
            <mxGeometry x="12.083333333333334" y="21.50943396226415" width="845.8333333333334" height="43.0188679245283" as="geometry" />
          </mxCell>
        </object>
        <mxCell id="VJJN_RWPSZKce4CWAGm1-212" value="" style="rounded=0;whiteSpace=wrap;html=1;fillColor=#ffffff;connectable=0;allowArrows=0;container=1;collapsible=0;portConstraintRotation=0;rotatable=0;cloneable=0;deletable=0;recursiveResize=0;" vertex="1" parent="VJJN_RWPSZKce4CWAGm1-210">
          <mxGeometry x="12.083333333333334" y="75.28301886792453" width="845.8333333333334" height="483.96226415094344" as="geometry">
            <mxRectangle x="10" y="70" width="50" height="40" as="alternateBounds" />
          </mxGeometry>
        </mxCell>
        <mxCell id="VJJN_RWPSZKce4CWAGm1-213" style="edgeStyle=orthogonalEdgeStyle;rounded=0;orthogonalLoop=1;jettySize=auto;html=1;exitX=1;exitY=0.5;exitDx=0;exitDy=0;entryX=0;entryY=0.5;entryDx=0;entryDy=0;" edge="1" parent="VJJN_RWPSZKce4CWAGm1-212" source="VJJN_RWPSZKce4CWAGm1-214" target="VJJN_RWPSZKce4CWAGm1-220">
          <mxGeometry relative="1" as="geometry" />
        </mxCell>
        <object label="%name%" placeholders="1" name="IC" class_name="InputPort" id="VJJN_RWPSZKce4CWAGm1-214">
          <mxCell style="triangle;fontSize=14;points=[[0,0.5],[1,0.5]];allowArrows=0;verticalAlign=middle;horizontal=1;spacingTop=0;align=right;spacingLeft=0;spacingRight=8;html=1;comic=0;treeFolding=0;treeMoving=0;resizable=0;movableLabel=1;spacing=2;aspect=fixed;fillColor=#000000;metaEdit=1;" vertex="1" parent="VJJN_RWPSZKce4CWAGm1-212">
            <mxGeometry x="36.25000000000001" y="64.52830188679245" width="10" height="15" as="geometry">
              <mxPoint x="-4" y="-8" as="offset" />
            </mxGeometry>
          </mxCell>
        </object>
        <mxCell id="VJJN_RWPSZKce4CWAGm1-277" style="edgeStyle=orthogonalEdgeStyle;rounded=0;orthogonalLoop=1;jettySize=auto;html=1;exitX=1;exitY=0.5;exitDx=0;exitDy=0;exitPerimeter=0;entryX=0;entryY=0.5;entryDx=0;entryDy=0;" edge="1" parent="VJJN_RWPSZKce4CWAGm1-212" source="VJJN_RWPSZKce4CWAGm1-216" target="VJJN_RWPSZKce4CWAGm1-272">
          <mxGeometry relative="1" as="geometry">
            <mxPoint x="337.9166666666667" y="314.7169811320755" as="targetPoint" />
            <Array as="points">
              <mxPoint x="128" y="325" />
              <mxPoint x="128" y="340" />
            </Array>
          </mxGeometry>
        </mxCell>
        <object label="%name%" placeholders="1" name="IN" class_name="InputPort" id="VJJN_RWPSZKce4CWAGm1-216">
          <mxCell style="triangle;fontSize=14;points=[[1,0.5,0,0,0]];allowArrows=0;verticalAlign=middle;horizontal=1;spacingTop=0;align=right;spacingLeft=0;spacingRight=8;html=1;comic=0;treeFolding=0;treeMoving=0;resizable=0;movableLabel=1;spacing=2;aspect=fixed;fillColor=#000000;metaEdit=1;" vertex="1" parent="VJJN_RWPSZKce4CWAGm1-212">
            <mxGeometry x="46.25000000000001" y="317.21603773584906" width="10" height="15" as="geometry">
              <mxPoint x="-4" y="-8" as="offset" />
            </mxGeometry>
          </mxCell>
        </object>
        <object label="%name%" placeholders="1" name="OUT" class_name="OutputPort" id="VJJN_RWPSZKce4CWAGm1-217">
          <mxCell style="triangle;fillColor=#ffffff;fontSize=14;points=[[0,0.5],[1,0.5]];allowArrows=0;verticalAlign=middle;horizontal=1;spacingTop=0;align=left;spacingLeft=4;spacingRight=0;html=1;comic=0;treeFolding=0;treeMoving=0;movable=1;resizable=0;rotatable=1;deletable=1;editable=1;connectable=1;movableLabel=1;spacing=2;aspect=fixed;metaEdit=1;" vertex="1" parent="VJJN_RWPSZKce4CWAGm1-212">
            <mxGeometry x="773.3333333333334" y="225.8490566037736" width="10" height="15" as="geometry">
              <mxPoint x="5" y="-7" as="offset" />
            </mxGeometry>
          </mxCell>
        </object>
        <object label="%symbol%" placeholders="1" symbol="D" class_name="DelayBlock" block_name="" id="VJJN_RWPSZKce4CWAGm1-218">
          <mxCell style="whiteSpace=wrap;html=1;aspect=fixed;comic=0;fillColor=#FFFFFF;fontSize=36;align=center;resizable=0;container=1;collapsible=0;points=[];allowArrows=0;metaEdit=1;connectable=0;" vertex="1" parent="VJJN_RWPSZKce4CWAGm1-212">
            <mxGeometry x="257.9166666666667" y="44.714649174528304" width="80" height="80" as="geometry" />
          </mxCell>
        </object>
        <object label="%name%" placeholders="1" name="OUT1" class_name="OutputPort" id="VJJN_RWPSZKce4CWAGm1-219">
          <mxCell style="triangle;fillColor=#ffffff;fontSize=14;points=[[1,0.5]];allowArrows=0;verticalAlign=middle;horizontal=1;spacingTop=0;align=left;spacingLeft=4;spacingRight=0;html=1;comic=0;treeFolding=0;treeMoving=0;movable=1;resizable=0;rotatable=1;deletable=1;editable=1;connectable=1;movableLabel=1;spacing=2;aspect=fixed;metaEdit=1;" vertex="1" parent="VJJN_RWPSZKce4CWAGm1-218">
            <mxGeometry x="70" y="32.5" width="10" height="15" as="geometry">
              <mxPoint x="5" y="-7" as="offset" />
            </mxGeometry>
          </mxCell>
        </object>
        <object label="%name%" placeholders="1" name="IC" class_name="InputPort" id="VJJN_RWPSZKce4CWAGm1-220">
          <mxCell style="triangle;fontSize=14;points=[[0,0.5]];allowArrows=0;verticalAlign=middle;horizontal=1;spacingTop=0;align=right;spacingLeft=0;spacingRight=8;html=1;comic=0;treeFolding=0;treeMoving=0;resizable=0;movableLabel=1;spacing=2;aspect=fixed;fillColor=#000000;metaEdit=1;" vertex="1" parent="VJJN_RWPSZKce4CWAGm1-218">
            <mxGeometry y="17.5" width="10" height="15" as="geometry">
              <mxPoint x="-4" y="-8" as="offset" />
            </mxGeometry>
          </mxCell>
        </object>
        <object label="%name%" placeholders="1" name="IN1" class_name="InputPort" id="VJJN_RWPSZKce4CWAGm1-221">
          <mxCell style="triangle;fontSize=14;points=[[0,0.5]];allowArrows=0;verticalAlign=middle;horizontal=1;spacingTop=0;align=right;spacingLeft=0;spacingRight=8;html=1;comic=0;treeFolding=0;treeMoving=0;resizable=0;movableLabel=1;spacing=2;aspect=fixed;fillColor=#000000;metaEdit=1;" vertex="1" parent="VJJN_RWPSZKce4CWAGm1-218">
            <mxGeometry y="47.5" width="10" height="15" as="geometry">
              <mxPoint x="-4" y="-8" as="offset" />
            </mxGeometry>
          </mxCell>
        </object>
        <object label="%symbol%" placeholders="1" block_name="" class_name="DeltaTBlock" symbol="&amp;#916;t" id="VJJN_RWPSZKce4CWAGm1-222">
          <mxCell style="ellipse;whiteSpace=wrap;html=1;comic=0;fillColor=#ffffff;fontSize=24;align=center;allowArrows=0;connectable=0;container=1;collapsible=0;recursiveResize=1;direction=west;resizable=0;metaEdit=1;" vertex="1" parent="VJJN_RWPSZKce4CWAGm1-212">
            <mxGeometry x="12.083333333333334" y="354.90566037735846" width="80" height="80" as="geometry" />
          </mxCell>
        </object>
        <object label="%name%" placeholders="1" name="OUT1" class_name="OutputPort" id="VJJN_RWPSZKce4CWAGm1-223">
          <mxCell style="triangle;fillColor=#ffffff;fontSize=14;points=[[1,0.5]];allowArrows=0;verticalAlign=middle;horizontal=1;spacingTop=0;align=left;spacingLeft=4;spacingRight=0;html=1;comic=0;treeFolding=0;treeMoving=0;movable=1;resizable=0;rotatable=1;deletable=1;editable=1;connectable=1;movableLabel=1;spacing=2;aspect=fixed;metaEdit=1;" vertex="1" parent="VJJN_RWPSZKce4CWAGm1-222">
            <mxGeometry x="70" y="32.5" width="10" height="15" as="geometry">
              <mxPoint x="6" y="-7" as="offset" />
            </mxGeometry>
          </mxCell>
        </object>
        <object label="%value%" placeholders="1" value="0" block_name="" class_name="ConstantBlock" id="VJJN_RWPSZKce4CWAGm1-228">
          <mxCell style="ellipse;whiteSpace=wrap;html=1;comic=0;fillColor=#ffffff;fontSize=24;align=center;allowArrows=0;connectable=0;container=1;collapsible=0;recursiveResize=1;direction=west;resizable=0;metaEdit=1;" vertex="1" parent="VJJN_RWPSZKce4CWAGm1-212">
            <mxGeometry x="12.083333333333334" y="219.71433962264152" width="80" height="80" as="geometry" />
          </mxCell>
        </object>
        <object label="%name%" placeholders="1" name="OUT1" class_name="OutputPort" id="VJJN_RWPSZKce4CWAGm1-229">
          <mxCell style="triangle;fillColor=#ffffff;fontSize=14;points=[[1,0.5]];allowArrows=0;verticalAlign=middle;horizontal=1;spacingTop=0;align=left;spacingLeft=4;spacingRight=0;html=1;comic=0;treeFolding=0;treeMoving=0;movable=1;resizable=0;rotatable=1;deletable=1;editable=1;connectable=1;movableLabel=1;spacing=2;aspect=fixed;metaEdit=1;" vertex="1" parent="VJJN_RWPSZKce4CWAGm1-228">
            <mxGeometry x="70" y="32.5" width="10" height="15" as="geometry">
              <mxPoint x="6" y="-7" as="offset" />
            </mxGeometry>
          </mxCell>
        </object>
        <object label="%symbol%" placeholders="1" symbol="&amp;prod;" class_name="ProductBlock" block_name="" numberOfInputs="2" id="VJJN_RWPSZKce4CWAGm1-231">
          <mxCell style="whiteSpace=wrap;html=1;aspect=fixed;comic=0;fillColor=#FFFFFF;fontSize=36;align=center;resizable=0;container=1;collapsible=0;points=[];allowArrows=0;spacingTop=-6;metaEdit=1;connectable=0;" vertex="1" parent="VJJN_RWPSZKce4CWAGm1-212">
            <mxGeometry x="477.9166666666667" y="334.71323113207546" width="80" height="80" as="geometry" />
          </mxCell>
        </object>
        <object label="%name%" placeholders="1" name="OUT1" class_name="OutputPort" id="VJJN_RWPSZKce4CWAGm1-232">
          <mxCell style="triangle;fillColor=#ffffff;fontSize=14;points=[[1,0.5]];allowArrows=0;verticalAlign=middle;horizontal=1;spacingTop=0;align=left;spacingLeft=4;spacingRight=0;html=1;comic=0;treeFolding=0;treeMoving=0;movable=1;resizable=0;rotatable=1;deletable=1;editable=1;connectable=1;movableLabel=1;spacing=2;aspect=fixed;metaEdit=1;" vertex="1" parent="VJJN_RWPSZKce4CWAGm1-231">
            <mxGeometry x="70" y="32.5" width="10" height="15" as="geometry">
              <mxPoint x="5" y="-7" as="offset" />
            </mxGeometry>
          </mxCell>
        </object>
        <object label="%name%" placeholders="1" name="IN1" class_name="InputPort" id="VJJN_RWPSZKce4CWAGm1-233">
          <mxCell style="triangle;fontSize=14;points=[[0,0.5]];allowArrows=0;verticalAlign=middle;horizontal=1;spacingTop=0;align=right;spacingLeft=0;spacingRight=8;html=1;comic=0;treeFolding=0;treeMoving=0;resizable=0;movableLabel=1;spacing=2;aspect=fixed;fillColor=#000000;metaEdit=1;" vertex="1" parent="VJJN_RWPSZKce4CWAGm1-231">
            <mxGeometry y="17.5" width="10" height="15" as="geometry">
              <mxPoint x="-4" y="-8" as="offset" />
            </mxGeometry>
          </mxCell>
        </object>
        <object label="%name%" placeholders="1" name="IN2" class_name="InputPort" id="VJJN_RWPSZKce4CWAGm1-234">
          <mxCell style="triangle;fontSize=14;points=[[0,0.5]];allowArrows=0;verticalAlign=middle;horizontal=1;spacingTop=0;align=right;spacingLeft=0;spacingRight=8;html=1;comic=0;treeFolding=0;treeMoving=0;resizable=0;movableLabel=1;spacing=2;aspect=fixed;fillColor=#000000;metaEdit=1;" vertex="1" parent="VJJN_RWPSZKce4CWAGm1-231">
            <mxGeometry y="47.5" width="10" height="15" as="geometry">
              <mxPoint x="-4" y="-8" as="offset" />
            </mxGeometry>
          </mxCell>
        </object>
        <mxCell id="VJJN_RWPSZKce4CWAGm1-236" style="edgeStyle=orthogonalEdgeStyle;rounded=0;orthogonalLoop=1;jettySize=auto;html=1;exitX=1;exitY=0.5;exitDx=0;exitDy=0;entryX=0;entryY=0.5;entryDx=0;entryDy=0;" edge="1" parent="VJJN_RWPSZKce4CWAGm1-212" source="VJJN_RWPSZKce4CWAGm1-223" target="VJJN_RWPSZKce4CWAGm1-234">
          <mxGeometry relative="1" as="geometry">
            <Array as="points">
              <mxPoint x="92" y="390" />
            </Array>
          </mxGeometry>
        </mxCell>
        <object label="%symbol%" placeholders="1" symbol="&amp;sum;" class_name="AdderBlock" block_name="" numberOfInputs="2" id="VJJN_RWPSZKce4CWAGm1-237">
          <mxCell style="whiteSpace=wrap;html=1;aspect=fixed;comic=0;fillColor=#FFFFFF;fontSize=36;align=center;resizable=0;container=1;collapsible=0;points=[];allowArrows=0;spacingTop=-6;metaEdit=1;connectable=0;" vertex="1" parent="VJJN_RWPSZKce4CWAGm1-212">
            <mxGeometry x="577.9166666666666" y="111.74823113207546" width="80" height="80" as="geometry" />
          </mxCell>
        </object>
        <object label="%name%" placeholders="1" name="OUT1" class_name="OutputPort" id="VJJN_RWPSZKce4CWAGm1-238">
          <mxCell style="triangle;fillColor=#ffffff;fontSize=14;points=[[1,0.5]];allowArrows=0;verticalAlign=middle;horizontal=1;spacingTop=0;align=left;spacingLeft=4;spacingRight=0;html=1;comic=0;treeFolding=0;treeMoving=0;movable=1;resizable=0;rotatable=1;deletable=1;editable=1;connectable=1;movableLabel=1;spacing=2;aspect=fixed;metaEdit=1;" vertex="1" parent="VJJN_RWPSZKce4CWAGm1-237">
            <mxGeometry x="70" y="32.5" width="10" height="15" as="geometry">
              <mxPoint x="5" y="-7" as="offset" />
            </mxGeometry>
          </mxCell>
        </object>
        <object label="%name%" placeholders="1" name="IN1" class_name="InputPort" id="VJJN_RWPSZKce4CWAGm1-239">
          <mxCell style="triangle;fontSize=14;points=[[0,0.5]];allowArrows=0;verticalAlign=middle;horizontal=1;spacingTop=0;align=right;spacingLeft=0;spacingRight=8;html=1;comic=0;treeFolding=0;treeMoving=0;resizable=0;movableLabel=1;spacing=2;aspect=fixed;fillColor=#000000;metaEdit=1;" vertex="1" parent="VJJN_RWPSZKce4CWAGm1-237">
            <mxGeometry y="17.5" width="10" height="15" as="geometry">
              <mxPoint x="-4" y="-8" as="offset" />
            </mxGeometry>
          </mxCell>
        </object>
        <object label="%name%" placeholders="1" name="IN2" class_name="InputPort" id="VJJN_RWPSZKce4CWAGm1-240">
          <mxCell style="triangle;fontSize=14;points=[[0,0.5]];allowArrows=0;verticalAlign=middle;horizontal=1;spacingTop=0;align=right;spacingLeft=0;spacingRight=8;html=1;comic=0;treeFolding=0;treeMoving=0;resizable=0;movableLabel=1;spacing=2;aspect=fixed;fillColor=#000000;metaEdit=1;" vertex="1" parent="VJJN_RWPSZKce4CWAGm1-237">
            <mxGeometry y="47.5" width="10" height="15" as="geometry">
              <mxPoint x="-4" y="-8" as="offset" />
            </mxGeometry>
          </mxCell>
        </object>
        <mxCell id="VJJN_RWPSZKce4CWAGm1-241" style="edgeStyle=orthogonalEdgeStyle;rounded=0;orthogonalLoop=1;jettySize=auto;html=1;exitX=1;exitY=0.5;exitDx=0;exitDy=0;entryX=0;entryY=0.5;entryDx=0;entryDy=0;" edge="1" parent="VJJN_RWPSZKce4CWAGm1-212" source="VJJN_RWPSZKce4CWAGm1-232" target="VJJN_RWPSZKce4CWAGm1-240">
          <mxGeometry relative="1" as="geometry" />
        </mxCell>
        <mxCell id="VJJN_RWPSZKce4CWAGm1-242" style="edgeStyle=orthogonalEdgeStyle;rounded=0;orthogonalLoop=1;jettySize=auto;html=1;exitX=1;exitY=0.5;exitDx=0;exitDy=0;entryX=0;entryY=0.5;entryDx=0;entryDy=0;" edge="1" parent="VJJN_RWPSZKce4CWAGm1-212" source="VJJN_RWPSZKce4CWAGm1-219" target="VJJN_RWPSZKce4CWAGm1-239">
          <mxGeometry relative="1" as="geometry" />
        </mxCell>
        <mxCell id="VJJN_RWPSZKce4CWAGm1-243" style="edgeStyle=orthogonalEdgeStyle;rounded=0;orthogonalLoop=1;jettySize=auto;html=1;exitX=1;exitY=0.5;exitDx=0;exitDy=0;entryX=0;entryY=0.5;entryDx=0;entryDy=0;" edge="1" parent="VJJN_RWPSZKce4CWAGm1-212" source="VJJN_RWPSZKce4CWAGm1-238" target="VJJN_RWPSZKce4CWAGm1-221">
          <mxGeometry relative="1" as="geometry">
            <Array as="points">
              <mxPoint x="688" y="152" />
              <mxPoint x="688" y="22" />
              <mxPoint x="229" y="22" />
              <mxPoint x="229" y="100" />
            </Array>
          </mxGeometry>
        </mxCell>
        <mxCell id="VJJN_RWPSZKce4CWAGm1-244" style="edgeStyle=orthogonalEdgeStyle;rounded=0;orthogonalLoop=1;jettySize=auto;html=1;exitX=1;exitY=0.5;exitDx=0;exitDy=0;entryX=0;entryY=0.5;entryDx=0;entryDy=0;" edge="1" parent="VJJN_RWPSZKce4CWAGm1-212" source="VJJN_RWPSZKce4CWAGm1-238" target="VJJN_RWPSZKce4CWAGm1-217">
          <mxGeometry relative="1" as="geometry" />
        </mxCell>
        <object label="%symbol%" placeholders="1" symbol="MUX" class_name="MultiplexerBlock" block_name="" id="VJJN_RWPSZKce4CWAGm1-269">
          <mxCell style="whiteSpace=wrap;html=1;aspect=fixed;comic=0;fillColor=#FFFFFF;fontSize=20;align=center;resizable=0;container=1;collapsible=0;points=[];allowArrows=0;metaEdit=1;connectable=0;" vertex="1" parent="VJJN_RWPSZKce4CWAGm1-212">
            <mxGeometry x="351.91666666666663" y="284.7169811320755" width="80" height="80" as="geometry" />
          </mxCell>
        </object>
        <object label="%name%" placeholders="1" name="OUT1" class_name="OutputPort" id="VJJN_RWPSZKce4CWAGm1-270">
          <mxCell style="triangle;fillColor=#ffffff;fontSize=14;points=[[1,0.5]];allowArrows=0;verticalAlign=middle;horizontal=1;spacingTop=0;align=left;spacingLeft=4;spacingRight=0;html=1;comic=0;treeFolding=0;treeMoving=0;movable=1;resizable=0;rotatable=1;deletable=1;editable=1;connectable=1;movableLabel=1;spacing=2;aspect=fixed;metaEdit=1;" vertex="1" parent="VJJN_RWPSZKce4CWAGm1-269">
            <mxGeometry x="70" y="32.5" width="10" height="15" as="geometry">
              <mxPoint x="5" y="-7" as="offset" />
            </mxGeometry>
          </mxCell>
        </object>
        <object label="%name%" placeholders="1" name="IN1" class_name="InputPort" id="VJJN_RWPSZKce4CWAGm1-271">
          <mxCell style="triangle;fontSize=14;points=[[0,0.5]];allowArrows=0;verticalAlign=middle;horizontal=1;spacingTop=0;align=right;spacingLeft=0;spacingRight=8;html=1;comic=0;treeFolding=0;treeMoving=0;resizable=0;movableLabel=1;spacing=2;aspect=fixed;fillColor=#000000;metaEdit=1;" vertex="1" parent="VJJN_RWPSZKce4CWAGm1-269">
            <mxGeometry y="17.5" width="10" height="15" as="geometry">
              <mxPoint x="-4" y="-8" as="offset" />
            </mxGeometry>
          </mxCell>
        </object>
        <object label="%name%" placeholders="1" name="IN2" class_name="InputPort" id="VJJN_RWPSZKce4CWAGm1-272">
          <mxCell style="triangle;fontSize=14;points=[[0,0.5]];allowArrows=0;verticalAlign=middle;horizontal=1;spacingTop=0;align=right;spacingLeft=0;spacingRight=8;html=1;comic=0;treeFolding=0;treeMoving=0;resizable=0;movableLabel=1;spacing=2;aspect=fixed;fillColor=#000000;metaEdit=1;" vertex="1" parent="VJJN_RWPSZKce4CWAGm1-269">
            <mxGeometry y="47.5" width="10" height="15" as="geometry">
              <mxPoint x="-4" y="-8" as="offset" />
            </mxGeometry>
          </mxCell>
        </object>
        <object label="%name%" placeholders="1" name="select" class_name="InputPort" id="VJJN_RWPSZKce4CWAGm1-273">
          <mxCell style="triangle;fontSize=14;points=[[0,0.5]];allowArrows=0;verticalAlign=middle;horizontal=1;spacingTop=0;align=left;spacingLeft=2;spacingRight=0;html=1;comic=0;treeFolding=0;treeMoving=0;resizable=0;movableLabel=1;spacing=2;aspect=fixed;fillColor=#000000;direction=south;metaEdit=1;" vertex="1" parent="VJJN_RWPSZKce4CWAGm1-269">
            <mxGeometry x="32.5" width="15" height="10" as="geometry">
              <mxPoint x="10" y="-15" as="offset" />
            </mxGeometry>
          </mxCell>
        </object>
        <mxCell id="VJJN_RWPSZKce4CWAGm1-276" style="edgeStyle=orthogonalEdgeStyle;rounded=0;orthogonalLoop=1;jettySize=auto;html=1;exitX=1;exitY=0.5;exitDx=0;exitDy=0;entryX=0;entryY=0.5;entryDx=0;entryDy=0;" edge="1" parent="VJJN_RWPSZKce4CWAGm1-212" source="VJJN_RWPSZKce4CWAGm1-229" target="VJJN_RWPSZKce4CWAGm1-271">
          <mxGeometry relative="1" as="geometry">
            <Array as="points">
              <mxPoint x="138" y="260" />
              <mxPoint x="138" y="310" />
            </Array>
          </mxGeometry>
        </mxCell>
        <mxCell id="VJJN_RWPSZKce4CWAGm1-278" style="edgeStyle=orthogonalEdgeStyle;rounded=0;orthogonalLoop=1;jettySize=auto;html=1;exitX=1;exitY=0.5;exitDx=0;exitDy=0;entryX=0;entryY=0.5;entryDx=0;entryDy=0;" edge="1" parent="VJJN_RWPSZKce4CWAGm1-212" source="VJJN_RWPSZKce4CWAGm1-270" target="VJJN_RWPSZKce4CWAGm1-233">
          <mxGeometry relative="1" as="geometry" />
        </mxCell>
        <object label="%symbol%" placeholders="1" symbol="+1" class_name="AddOneBlock" block_name="" id="VJJN_RWPSZKce4CWAGm1-279">
          <mxCell style="whiteSpace=wrap;html=1;aspect=fixed;comic=0;fontSize=24;align=center;resizable=0;container=1;collapsible=0;points=[];allowArrows=0;metaEdit=1;connectable=0;" vertex="1" parent="VJJN_RWPSZKce4CWAGm1-212">
            <mxGeometry x="177.91666666666666" y="219.7169811320755" width="80" height="80" as="geometry" />
          </mxCell>
        </object>
        <object label="%name%" placeholders="1" name="OUT1" class_name="OutputPort" id="VJJN_RWPSZKce4CWAGm1-280">
          <mxCell style="triangle;fillColor=#ffffff;fontSize=14;points=[[1,0.5]];allowArrows=0;verticalAlign=middle;horizontal=1;spacingTop=0;align=left;spacingLeft=4;spacingRight=0;html=1;comic=0;treeFolding=0;treeMoving=0;movable=1;resizable=0;rotatable=1;deletable=1;editable=1;connectable=1;movableLabel=1;spacing=2;aspect=fixed;metaEdit=1;" vertex="1" parent="VJJN_RWPSZKce4CWAGm1-279">
            <mxGeometry x="70" y="32.5" width="10" height="15" as="geometry">
              <mxPoint x="5" y="-7" as="offset" />
            </mxGeometry>
          </mxCell>
        </object>
        <object label="%name%" placeholders="1" name="IN1" class_name="InputPort" id="VJJN_RWPSZKce4CWAGm1-281">
          <mxCell style="triangle;fontSize=14;points=[[0,0.5]];allowArrows=0;verticalAlign=middle;horizontal=1;spacingTop=0;align=right;spacingLeft=0;spacingRight=8;html=1;comic=0;treeFolding=0;treeMoving=0;resizable=0;movableLabel=1;spacing=2;aspect=fixed;fillColor=#000000;metaEdit=1;" vertex="1" parent="VJJN_RWPSZKce4CWAGm1-279">
            <mxGeometry y="32.5" width="10" height="15" as="geometry">
              <mxPoint x="-4" y="-8" as="offset" />
            </mxGeometry>
          </mxCell>
        </object>
        <mxCell id="VJJN_RWPSZKce4CWAGm1-282" style="edgeStyle=orthogonalEdgeStyle;rounded=0;orthogonalLoop=1;jettySize=auto;html=1;exitX=1;exitY=0.5;exitDx=0;exitDy=0;entryX=0;entryY=0.5;entryDx=0;entryDy=0;" edge="1" parent="VJJN_RWPSZKce4CWAGm1-212" source="VJJN_RWPSZKce4CWAGm1-229" target="VJJN_RWPSZKce4CWAGm1-281">
          <mxGeometry relative="1" as="geometry" />
        </mxCell>
        <object label="%symbol%" placeholders="1" symbol="D" class_name="DelayBlock" block_name="" id="VJJN_RWPSZKce4CWAGm1-283">
          <mxCell style="whiteSpace=wrap;html=1;aspect=fixed;comic=0;fillColor=#FFFFFF;fontSize=36;align=center;resizable=0;container=1;collapsible=0;points=[];allowArrows=0;metaEdit=1;connectable=0;" vertex="1" parent="VJJN_RWPSZKce4CWAGm1-212">
            <mxGeometry x="351.9166666666667" y="118.06698113207548" width="80" height="80" as="geometry" />
          </mxCell>
        </object>
        <object label="%name%" placeholders="1" name="OUT1" class_name="OutputPort" id="VJJN_RWPSZKce4CWAGm1-284">
          <mxCell style="triangle;fillColor=#ffffff;fontSize=14;points=[[1,0.5]];allowArrows=0;verticalAlign=middle;horizontal=1;spacingTop=0;align=left;spacingLeft=4;spacingRight=0;html=1;comic=0;treeFolding=0;treeMoving=0;movable=1;resizable=0;rotatable=1;deletable=1;editable=1;connectable=1;movableLabel=1;spacing=2;aspect=fixed;metaEdit=1;" vertex="1" parent="VJJN_RWPSZKce4CWAGm1-283">
            <mxGeometry x="70" y="32.5" width="10" height="15" as="geometry">
              <mxPoint x="5" y="-7" as="offset" />
            </mxGeometry>
          </mxCell>
        </object>
        <object label="%name%" placeholders="1" name="IC" class_name="InputPort" id="VJJN_RWPSZKce4CWAGm1-285">
          <mxCell style="triangle;fontSize=14;points=[[0,0.5]];allowArrows=0;verticalAlign=middle;horizontal=1;spacingTop=0;align=right;spacingLeft=0;spacingRight=8;html=1;comic=0;treeFolding=0;treeMoving=0;resizable=0;movableLabel=1;spacing=2;aspect=fixed;fillColor=#000000;metaEdit=1;" vertex="1" parent="VJJN_RWPSZKce4CWAGm1-283">
            <mxGeometry y="17.5" width="10" height="15" as="geometry">
              <mxPoint x="-4" y="-8" as="offset" />
            </mxGeometry>
          </mxCell>
        </object>
        <object label="%name%" placeholders="1" name="IN1" class_name="InputPort" id="VJJN_RWPSZKce4CWAGm1-286">
          <mxCell style="triangle;fontSize=14;points=[[0,0.5]];allowArrows=0;verticalAlign=middle;horizontal=1;spacingTop=0;align=right;spacingLeft=0;spacingRight=8;html=1;comic=0;treeFolding=0;treeMoving=0;resizable=0;movableLabel=1;spacing=2;aspect=fixed;fillColor=#000000;metaEdit=1;" vertex="1" parent="VJJN_RWPSZKce4CWAGm1-283">
            <mxGeometry y="47.5" width="10" height="15" as="geometry">
              <mxPoint x="-4" y="-8" as="offset" />
            </mxGeometry>
          </mxCell>
        </object>
        <mxCell id="VJJN_RWPSZKce4CWAGm1-287" style="edgeStyle=orthogonalEdgeStyle;rounded=0;orthogonalLoop=1;jettySize=auto;html=1;exitX=1;exitY=0.5;exitDx=0;exitDy=0;entryX=0;entryY=0.5;entryDx=0;entryDy=0;" edge="1" parent="VJJN_RWPSZKce4CWAGm1-212" source="VJJN_RWPSZKce4CWAGm1-280" target="VJJN_RWPSZKce4CWAGm1-286">
          <mxGeometry relative="1" as="geometry" />
        </mxCell>
        <mxCell id="VJJN_RWPSZKce4CWAGm1-288" style="edgeStyle=orthogonalEdgeStyle;rounded=0;orthogonalLoop=1;jettySize=auto;html=1;exitX=1;exitY=0.5;exitDx=0;exitDy=0;entryX=0;entryY=0.5;entryDx=0;entryDy=0;" edge="1" parent="VJJN_RWPSZKce4CWAGm1-212" source="VJJN_RWPSZKce4CWAGm1-229" target="VJJN_RWPSZKce4CWAGm1-285">
          <mxGeometry relative="1" as="geometry">
            <Array as="points">
              <mxPoint x="138" y="260" />
              <mxPoint x="138" y="145" />
              <mxPoint x="348" y="145" />
              <mxPoint x="348" y="143" />
            </Array>
          </mxGeometry>
        </mxCell>
        <mxCell id="VJJN_RWPSZKce4CWAGm1-289" style="edgeStyle=orthogonalEdgeStyle;rounded=0;orthogonalLoop=1;jettySize=auto;html=1;exitX=1;exitY=0.5;exitDx=0;exitDy=0;entryX=0;entryY=0.5;entryDx=0;entryDy=0;" edge="1" parent="VJJN_RWPSZKce4CWAGm1-212" source="VJJN_RWPSZKce4CWAGm1-284" target="VJJN_RWPSZKce4CWAGm1-273">
          <mxGeometry relative="1" as="geometry" />
        </mxCell>
      </root>
    </mxGraphModel>
  </diagram>
</mxfile>
